<?xml version="1.0" encoding="UTF-8"?><svg id="Layer_1" xmlns="http://www.w3.org/2000/svg" xmlns:xlink="http://www.w3.org/1999/xlink" viewBox="0 0 2372.49 1442.04"><defs><style>.cls-1{fill:#183358;}.cls-1,.cls-2,.cls-3,.cls-4{stroke-width:0px;}.cls-2{fill:#fff;}.cls-3{fill:#183459;}.cls-4{fill:#09814c;}</style></defs><path class="cls-1" d="M247.86,1267.31v-120.99c-1.33-.13-2.28-.31-3.23-.31-43.62-.01-87.25-.02-130.87,0-10.91,0-17.07,7.5-14.48,17.48,1.54,5.94,6.45,9.49,13.54,9.5,23.98.05,47.95-.01,71.93.04,27.04.06,46.14,18.48,46.31,45.51.06,9.36-.36,19.25-3.28,27.98-6.29,18.77-20.83,29.22-40.33,29.56-44.24.77-88.5.24-133.02.24v-39.31h5.38c36.63,0,73.26.02,109.89-.02,6.73,0,11.93-4.23,13.37-10.52,1.5-6.56-1.28-13.39-6.99-16.17-1.99-.97-4.45-1.32-6.69-1.33-24.64-.09-49.28-.03-73.93-.07-25.3-.05-43.45-17.16-44.9-42.54-.62-10.83-.63-21.68,4.29-31.8,7.72-15.91,20.44-25.37,38.06-25.43,102.9-.35,205.79-.2,308.69-.21.78,0,1.56.13,3.24.27-7.23,12.01-14.03,23.57-21.2,34.89-.82,1.3-3.7,1.81-5.64,1.82-25.64.13-51.28.1-76.92.11-1.78,0-3.56,0-5.79,0,0,2.66,0,4.78,0,6.9,0,29.83-.08,59.66.05,89.49.01,3.53-1.05,5.33-4.37,6.69-14.11,5.77-28.1,11.84-43.12,18.21Z"/><path class="cls-3" d="M434.99,1136.7h-17.7c-.1-1.77-.28-3.52-.29-5.27-.03-10.5.01-21-.03-31.5-.03-5.9-1.81-7.73-7.8-7.75-21.48-.07-42.95-.06-64.43-.08-8.07,0-11.59-3.4-11.61-11.42-.05-18.99-.02-37.98-.02-57.83-2.11,0-4.02,0-5.92,0-96.89-.01-193.79-.02-290.68-.03-9.4,0-13.42,3.8-13.43,13.19-.06,69.66-.08,139.31-.06,208.97.01,44.16-.04,88.31.23,132.47.13,21.44,15.71,36.47,37.15,36.48,73.42.02,146.84.03,220.26-.07,3.91,0,6.79.98,9.74,3.7,6.67,6.16,13.8,11.82,22.04,18.77-3.93,0-6.48,0-9.03,0-80.74.02-161.48.08-242.23.03-27.9-.02-48.17-12.45-57.01-36.03-2.84-7.58-3.99-16.21-4.01-24.37-.24-113.98-.18-227.97-.02-341.95,0-6.37.32-13.27,2.72-18.98,4.73-11.26,14.82-14.91,26.51-14.9,48.95.03,97.89,0,146.84,0,53.61,0,107.22.05,160.82-.05,4.09,0,7.27.94,10.23,3.91,28.34,28.42,56.81,56.72,85.16,85.12,1.2,1.2,2.43,3.06,2.45,4.64.19,14.14.11,28.28.11,42.96Z"/><path class="cls-4" d="M264.22,1304.32c0-7.66.19-15.33-.09-22.98-.12-3.41,1.14-5.01,4.14-6.32,30.41-13.27,60.74-26.72,91.19-39.91,1.72-.75,4.48-.12,6.39.72,23.72,10.37,47.37,20.91,71.05,31.38,5.46,2.42,11.02,4.62,16.38,7.25,1.5.74,3.46,2.65,3.45,4.02-.14,19.8.84,39.75-1.31,59.35-2.73,24.91-14.3,46.43-31.55,64.75-16.64,17.67-37.06,29.54-59.22,38.7-1.83.76-4.43,1.08-6.18.37-34.79-14.07-64.59-34.26-82.04-68.94-8.5-16.89-12.39-34.96-12.18-53.89.06-4.83,0-9.66,0-14.49h-.03ZM408.42,1287.09c-1.2,1.13-2.32,2.12-3.37,3.17-17.22,17.17-34.42,34.36-51.65,51.51-5.57,5.54-5.6,5.51-11.26-.13-7.99-7.96-15.97-15.93-24.37-24.3-6.65,7.18-13.05,14.1-18.57,20.07,15.9,16.39,32.39,33.4,48.08,49.58,27.22-26.82,54.23-53.43,80.81-79.62-6.67-6.87-13.12-13.51-19.68-20.27Z"/><path class="cls-4" d="M399.86,1182.77c0-5.32.1-10.65-.03-15.97-.09-3.57,1.63-5.38,4.98-5.41,10.3-.07,20.6-.02,30.9.09,3.51.04,5.09,2.41,5.13,5.56.12,10.48.12,20.96,0,31.43-.04,3.38-2.19,5.2-5.47,5.23-10.3.08-20.6.04-30.9-.02-3.54-.02-4.91-1.94-4.79-5.45.18-5.15.05-10.31.05-15.46.05,0,.09,0,.14,0Z"/><path class="cls-3" d="M453.02,1143.44c0-3.83,0-7.65,0-11.48,0-3.15,1.19-5.02,4.71-4.97,6.81.1,13.63.09,20.45.01,3.38-.04,4.84,1.55,4.83,4.85-.04,7.49-.07,14.97,0,22.46.03,3.09-1.15,4.62-4.39,4.58-7.15-.08-14.3-.12-21.44.04-3.35.07-4.37-1.39-4.23-4.51.17-3.65.04-7.32.04-10.98h.04Z"/><path class="cls-4" d="M467.12,1201.04c-12.84-.15-11.03,1.52-11.02-11.1.01-12.36-1.64-10.83,10.74-10.88,12.07-.05,12.1,0,11.99,12.07-.1,11.41,1.68,9.77-11.71,9.91Z"/><path class="cls-3" d="M432.83,1217.04v28.09c-5.32-2.16-10.25-4.02-15.01-6.24-.96-.45-1.75-2.25-1.8-3.46-.18-4.98.06-9.98-.08-14.97-.07-2.66,1.02-3.52,3.53-3.45,4.29.11,8.59.03,13.35.03Z"/><path class="cls-2" d="M408.42,1287.09c6.56,6.76,13.01,13.4,19.68,20.27-26.58,26.19-53.6,52.81-80.81,79.62-15.69-16.18-32.18-33.18-48.08-49.58,5.52-5.96,11.92-12.88,18.57-20.07,8.39,8.37,16.38,16.34,24.37,24.3,5.66,5.64,5.69,5.67,11.26.13,17.23-17.16,34.43-34.35,51.65-51.51,1.05-1.05,2.17-2.04,3.37-3.17Z"/><image width="1024" height="1024" transform="translate(1348.49)" xlink:href="../../logo.png"/></svg>